<?xml version="1.0" standalone="no"?>
<svg xmlns:xlink="http://www.w3.org/1999/xlink" id="wave" style="transform:rotate(0deg); transition: 0.3s" viewBox="0 0 1440 260" version="1.1" xmlns="http://www.w3.org/2000/svg"><defs><linearGradient id="sw-gradient-0" x1="0" x2="0" y1="1" y2="0"><stop stop-color="rgba(4, 24, 47, 1)" offset="0%"/><stop stop-color="rgba(4, 24, 47, 1)" offset="100%"/></linearGradient></defs><path style="transform:translate(0, 0px); opacity:1" fill="url(#sw-gradient-0)" d="M0,182L60,151.7C120,121,240,61,360,65C480,69,600,139,720,177.7C840,217,960,225,1080,208C1200,191,1320,147,1440,112.7C1560,78,1680,52,1800,56.3C1920,61,2040,95,2160,91C2280,87,2400,43,2520,21.7C2640,0,2760,0,2880,21.7C3000,43,3120,87,3240,108.3C3360,130,3480,130,3600,143C3720,156,3840,182,3960,199.3C4080,217,4200,225,4320,216.7C4440,208,4560,182,4680,151.7C4800,121,4920,87,5040,99.7C5160,113,5280,173,5400,173.3C5520,173,5640,113,5760,112.7C5880,113,6000,173,6120,190.7C6240,208,6360,182,6480,169C6600,156,6720,156,6840,130C6960,104,7080,52,7200,26C7320,0,7440,0,7560,13C7680,26,7800,52,7920,52C8040,52,8160,26,8280,17.3C8400,9,8520,17,8580,21.7L8640,26L8640,260L8580,260C8520,260,8400,260,8280,260C8160,260,8040,260,7920,260C7800,260,7680,260,7560,260C7440,260,7320,260,7200,260C7080,260,6960,260,6840,260C6720,260,6600,260,6480,260C6360,260,6240,260,6120,260C6000,260,5880,260,5760,260C5640,260,5520,260,5400,260C5280,260,5160,260,5040,260C4920,260,4800,260,4680,260C4560,260,4440,260,4320,260C4200,260,4080,260,3960,260C3840,260,3720,260,3600,260C3480,260,3360,260,3240,260C3120,260,3000,260,2880,260C2760,260,2640,260,2520,260C2400,260,2280,260,2160,260C2040,260,1920,260,1800,260C1680,260,1560,260,1440,260C1320,260,1200,260,1080,260C960,260,840,260,720,260C600,260,480,260,360,260C240,260,120,260,60,260L0,260Z"/></svg>